<mxfile host="app.diagrams.net" modified="2020-04-09T12:31:09.966Z" agent="5.0 (Windows)" etag="RmQgmg3_l58Z9Q6qAYTW" version="12.9.10" type="github">
  <diagram id="luoJL8KuEAm5CpeZwLHm" name="Page-1">
    <mxGraphModel dx="2249" dy="5467" grid="1" gridSize="10" guides="1" tooltips="1" connect="1" arrows="1" fold="1" page="1" pageScale="1" pageWidth="827" pageHeight="1169" math="0" shadow="0">
      <root>
        <mxCell id="0" />
        <mxCell id="1" parent="0" />
        <UserObject label="&lt;font color=&quot;#B9E0A5&quot;&gt;ALLOCATION&lt;/font&gt;" lucidchartObjectId=".vVLuVB._1Rt" id="ZrMuteQqzwVxlPmZNm4r-79">
          <mxCell style="html=1;whiteSpace=wrap;;fontSize=128;fontColor=#000000;spacing=3;strokeColor=none;strokeOpacity=100;fillOpacity=0;shadow=1;fillColor=#000000;strokeWidth=3;" parent="1" vertex="1">
            <mxGeometry x="2486" y="-96" width="124" height="160" as="geometry" />
          </mxCell>
        </UserObject>
        <UserObject label="&lt;font color=&quot;#B9E0A5&quot;&gt;REPLENISHMENT&lt;/font&gt;" lucidchartObjectId=".vVLyLYL6PfR" id="ZrMuteQqzwVxlPmZNm4r-78">
          <mxCell style="html=1;whiteSpace=wrap;;fontSize=128;fontColor=#000000;spacing=3;strokeColor=none;strokeOpacity=100;fillOpacity=0;shadow=1;fillColor=#000000;strokeWidth=3;" parent="1" vertex="1">
            <mxGeometry x="2476" y="536" width="144" height="160" as="geometry" />
          </mxCell>
        </UserObject>
        <UserObject label="&lt;font color=&quot;#B9E0A5&quot;&gt;DISPATCH&lt;/font&gt;" lucidchartObjectId=".vVLLQtsw8U~" id="ZrMuteQqzwVxlPmZNm4r-85">
          <mxCell style="html=1;whiteSpace=wrap;;fontSize=128;fontColor=#000000;spacing=3;strokeColor=none;strokeOpacity=100;fillOpacity=0;shadow=1;fillColor=#000000;strokeWidth=3;" parent="1" vertex="1">
            <mxGeometry x="2488" y="3007" width="144" height="160" as="geometry" />
          </mxCell>
        </UserObject>
        <UserObject label="&lt;font color=&quot;#B9E0A5&quot;&gt;LOADING&lt;/font&gt;" lucidchartObjectId=".vVLYi2AwPZS" id="ZrMuteQqzwVxlPmZNm4r-133">
          <mxCell style="html=1;whiteSpace=wrap;;fontSize=128;fontColor=#000000;spacing=3;strokeColor=none;strokeOpacity=100;fillOpacity=0;shadow=1;fillColor=#000000;strokeWidth=3;" parent="1" vertex="1">
            <mxGeometry x="2664" y="2717" width="144" height="160" as="geometry" />
          </mxCell>
        </UserObject>
        <UserObject label="&lt;font color=&quot;#B9E0A5&quot;&gt;ORDER CREATION&lt;/font&gt;" lucidchartObjectId=".vVLhQk9bZqV" id="ZrMuteQqzwVxlPmZNm4r-81">
          <mxCell style="html=1;whiteSpace=wrap;;fontSize=128;fontColor=#000000;spacing=3;strokeColor=none;strokeOpacity=100;fillOpacity=0;shadow=1;fillColor=#000000;strokeWidth=3;" parent="1" vertex="1">
            <mxGeometry x="1960" y="-1420" width="1397" height="313" as="geometry" />
          </mxCell>
        </UserObject>
        <UserObject label="&lt;font color=&quot;#B9E0A5&quot;&gt;WAVE PLANNING&lt;/font&gt;" lucidchartObjectId=".vVLStHm2DLD" id="ZrMuteQqzwVxlPmZNm4r-1">
          <mxCell style="html=1;whiteSpace=wrap;;fontSize=128;fontColor=#000000;spacing=3;strokeColor=none;strokeOpacity=100;fillOpacity=0;shadow=1;fillColor=#000000;strokeWidth=3;" parent="1" vertex="1">
            <mxGeometry x="2045" y="-976" width="1145" height="313" as="geometry" />
          </mxCell>
        </UserObject>
        <UserObject label="WebUI Outbound Order Creation" link="https://jira.int.kn/browse/TCL-16" lucidchartObjectId=".vVLgRmdVRMW" id="ZrMuteQqzwVxlPmZNm4r-3">
          <mxCell style="html=1;whiteSpace=wrap;;fontSize=11;fontColor=#000000;spacing=3;strokeOpacity=100;strokeWidth=1;rounded=1;perimeterSpacing=1;" parent="1" vertex="1">
            <mxGeometry x="265" y="-4200" width="96" height="72" as="geometry" />
          </mxCell>
        </UserObject>
        <UserObject label="" lucidchartObjectId=".vVLU0FmFgop" id="ZrMuteQqzwVxlPmZNm4r-6">
          <mxCell style="html=1;jettySize=18;fontSize=11;strokeColor=#19967d;strokeOpacity=100;strokeWidth=3;rounded=1;arcSize=0;startArrow=none;;endArrow=block;endFill=1;;exitX=0.5;exitY=1.0208333333333333;exitPerimeter=1;entryX=0.5;entryY=-0.020833333333333332;entryPerimeter=1;" parent="1" source="ZrMuteQqzwVxlPmZNm4r-3" target="ZrMuteQqzwVxlPmZNm4r-4" edge="1">
            <mxGeometry width="100" height="100" relative="1" as="geometry" />
          </mxCell>
        </UserObject>
        <UserObject label="Outbound Order Creation via EDI" lucidchartObjectId=".vVLBfL-Y4Gz" id="ZrMuteQqzwVxlPmZNm4r-11">
          <mxCell style="html=1;whiteSpace=wrap;;fontSize=11;fontColor=#000000;spacing=3;strokeOpacity=100;strokeWidth=1;rounded=1;perimeterSpacing=1;" parent="1" vertex="1">
            <mxGeometry x="-74" y="-4200" width="96" height="72" as="geometry" />
          </mxCell>
        </UserObject>
        <UserObject label="" lucidchartObjectId=".vVL_0OSwGT9" id="ZrMuteQqzwVxlPmZNm4r-12">
          <mxCell style="html=1;jettySize=18;fontSize=11;strokeColor=#7ab648;strokeOpacity=100;strokeWidth=3;rounded=1;arcSize=0;startArrow=none;;endArrow=block;endFill=1;;exitX=0.5;exitY=1.0208333333333333;exitPerimeter=1;entryX=0.5;entryY=-0.020833333333333332;entryPerimeter=1;" parent="1" source="ZrMuteQqzwVxlPmZNm4r-11" target="ZrMuteQqzwVxlPmZNm4r-4" edge="1">
            <mxGeometry width="100" height="100" relative="1" as="geometry" />
          </mxCell>
        </UserObject>
        <UserObject label="" lucidchartObjectId=".vVLEps8h.BU" id="ZrMuteQqzwVxlPmZNm4r-13">
          <mxCell style="html=1;jettySize=18;fontSize=11;strokeColor=#c92d39;strokeOpacity=100;strokeWidth=3;rounded=1;arcSize=0;startArrow=none;;endArrow=block;endFill=1;;entryX=0.5;entryY=-0.020833333333333332;entryPerimeter=1;exitX=0.5;exitY=1;exitDx=0;exitDy=0;" parent="1" source="ZrMuteQqzwVxlPmZNm4r-11" target="ZrMuteQqzwVxlPmZNm4r-5" edge="1">
            <mxGeometry width="100" height="100" relative="1" as="geometry">
              <mxPoint x="-100" y="-4090" as="sourcePoint" />
            </mxGeometry>
          </mxCell>
        </UserObject>
        <mxCell id="ZrMuteQqzwVxlPmZNm4r-143" style="rounded=0;orthogonalLoop=1;jettySize=auto;html=1;strokeColor=#D4E1F5;fontSize=128;exitX=0.5;exitY=1;exitDx=0;exitDy=0;entryX=0.5;entryY=0;entryDx=0;entryDy=0;" parent="1" source="ZrMuteQqzwVxlPmZNm4r-43" target="ZrMuteQqzwVxlPmZNm4r-145" edge="1">
          <mxGeometry relative="1" as="geometry">
            <mxPoint x="210" y="605" as="targetPoint" />
          </mxGeometry>
        </mxCell>
        <UserObject label="" lucidchartObjectId=".vVL8aFrUY4E" id="ZrMuteQqzwVxlPmZNm4r-44">
          <mxCell style="html=1;jettySize=18;fontSize=11;strokeColor=#19967d;strokeOpacity=100;strokeWidth=3;rounded=1;arcSize=0;startArrow=none;;endArrow=block;endFill=1;;exitX=0.5;exitY=1;entryX=0.5;entryY=-0.020833333333333332;entryPerimeter=1;exitDx=0;exitDy=0;" parent="1" source="ZrMuteQqzwVxlPmZNm4r-51" target="ZrMuteQqzwVxlPmZNm4r-42" edge="1">
            <mxGeometry width="100" height="100" relative="1" as="geometry" />
          </mxCell>
        </UserObject>
        <UserObject label="RF carton Picking - Multiple Line" lucidchartObjectId=".vVLg3zW-UZA" id="ZrMuteQqzwVxlPmZNm4r-49">
          <mxCell style="html=1;whiteSpace=wrap;;fontSize=11;fontColor=#000000;spacing=3;strokeOpacity=100;strokeWidth=3;" parent="1" vertex="1">
            <mxGeometry x="73" y="-1388" width="96" height="72" as="geometry" />
          </mxCell>
        </UserObject>
        <UserObject label="" lucidchartObjectId=".vVL1jVabSok" id="ZrMuteQqzwVxlPmZNm4r-50">
          <mxCell style="html=1;jettySize=18;fontSize=11;strokeColor=#19967d;strokeOpacity=100;strokeWidth=3;rounded=1;arcSize=0;startArrow=none;;endArrow=block;endFill=1;;entryX=0.5001248403896128;entryY=-0.020833333333333332;entryPerimeter=1;exitX=0.5;exitY=1;exitDx=0;exitDy=0;" parent="1" source="ZrMuteQqzwVxlPmZNm4r-47" target="ZrMuteQqzwVxlPmZNm4r-49" edge="1">
            <mxGeometry width="100" height="100" relative="1" as="geometry">
              <mxPoint x="409" y="-2978" as="sourcePoint" />
            </mxGeometry>
          </mxCell>
        </UserObject>
        <UserObject label="RF Order Packing" lucidchartObjectId=".vVLDRq_sSc~" id="ZrMuteQqzwVxlPmZNm4r-51">
          <mxCell style="html=1;whiteSpace=wrap;;fontSize=11;fontColor=#000000;spacing=3;strokeOpacity=100;strokeWidth=3;" parent="1" vertex="1">
            <mxGeometry x="73" y="-848" width="96" height="72" as="geometry" />
          </mxCell>
        </UserObject>
        <UserObject label="&lt;font color=&quot;#B9E0A5&quot;&gt;PICKING&lt;/font&gt;" lucidchartObjectId=".vVL_m-nR4Ay" id="ZrMuteQqzwVxlPmZNm4r-80">
          <mxCell style="html=1;whiteSpace=wrap;;fontSize=128;fontColor=#000000;spacing=3;strokeColor=none;strokeOpacity=100;fillOpacity=0;shadow=1;fillColor=#B9E0A5;strokeWidth=3;gradientColor=none;" parent="1" vertex="1">
            <mxGeometry x="2543" y="1441" width="144" height="160" as="geometry" />
          </mxCell>
        </UserObject>
        <UserObject label="&lt;font color=&quot;#B9E0A5&quot;&gt;&amp;amp; PACKING&lt;/font&gt;" lucidchartObjectId=".vVLqx0EdpYy" id="ZrMuteQqzwVxlPmZNm4r-82">
          <mxCell style="html=1;whiteSpace=wrap;;fontSize=128;fontColor=#000000;spacing=3;strokeColor=none;strokeOpacity=100;fillOpacity=0;shadow=1;fillColor=#000000;strokeWidth=3;" parent="1" vertex="1">
            <mxGeometry x="2544.5" y="1567" width="144" height="313" as="geometry" />
          </mxCell>
        </UserObject>
        <UserObject label="" lucidchartObjectId=".vVLhLCV1whi" id="ZrMuteQqzwVxlPmZNm4r-83">
          <mxCell style="html=1;jettySize=18;fontSize=11;strokeColor=#19967d;strokeOpacity=100;strokeWidth=3;rounded=1;arcSize=0;startArrow=none;;endArrow=block;endFill=1;;exitX=0.5;exitY=1.0208333333333333;exitPerimeter=1;entryX=0.5014700940860216;entryY=-0.020833333333333332;entryPerimeter=1;" parent="1" source="ZrMuteQqzwVxlPmZNm4r-124" target="ZrMuteQqzwVxlPmZNm4r-43" edge="1">
            <mxGeometry width="100" height="100" relative="1" as="geometry" />
          </mxCell>
        </UserObject>
        <UserObject label="RF Order Packing - Create LPN" lucidchartObjectId=".vVLZd.iJXTy" id="ZrMuteQqzwVxlPmZNm4r-86">
          <mxCell style="html=1;whiteSpace=wrap;;fontSize=11;fontColor=#000000;spacing=3;strokeWidth=3;" parent="1" vertex="1">
            <mxGeometry x="-152" y="-848" width="96" height="72" as="geometry" />
          </mxCell>
        </UserObject>
        <UserObject label="" lucidchartObjectId="ZwVLizKorex1" id="ZrMuteQqzwVxlPmZNm4r-88">
          <mxCell style="html=1;jettySize=18;fontSize=11;strokeColor=#c92d39;strokeOpacity=100;strokeWidth=3;rounded=1;arcSize=0;startArrow=none;;endArrow=block;endFill=1;;exitX=0;exitY=0.5;entryX=1;entryY=0.5;entryDx=0;entryDy=0;exitDx=0;exitDy=0;" parent="1" source="ZrMuteQqzwVxlPmZNm4r-11" target="ZrMuteQqzwVxlPmZNm4r-17" edge="1">
            <mxGeometry width="100" height="100" relative="1" as="geometry" />
          </mxCell>
        </UserObject>
        <UserObject label="" lucidchartObjectId="ObWLLQAz0ZJ7" id="ZrMuteQqzwVxlPmZNm4r-99">
          <mxCell style="html=1;jettySize=18;fontSize=11;strokeColor=#19967d;strokeOpacity=100;strokeWidth=3;rounded=1;arcSize=0;startArrow=none;;endArrow=block;endFill=1;;entryX=0.5;entryY=-0.020833333333333332;entryPerimeter=1;exitX=0.5;exitY=1;exitDx=0;exitDy=0;" parent="1" source="ZrMuteQqzwVxlPmZNm4r-49" target="ZrMuteQqzwVxlPmZNm4r-51" edge="1">
            <mxGeometry width="100" height="100" relative="1" as="geometry">
              <mxPoint x="409" y="-1255" as="sourcePoint" />
            </mxGeometry>
          </mxCell>
        </UserObject>
        <UserObject label="" lucidchartObjectId="MpWLVmly3CWL" id="ZrMuteQqzwVxlPmZNm4r-105">
          <mxCell style="html=1;jettySize=18;fontSize=11;strokeColor=#6F0000;strokeOpacity=100;strokeWidth=3;rounded=1;arcSize=0;startArrow=none;;endArrow=block;endFill=1;;exitX=0.5;exitY=1;entryX=0.5;entryY=-0.020833333333333332;entryPerimeter=1;fillColor=#a20025;exitDx=0;exitDy=0;" parent="1" source="ZrMuteQqzwVxlPmZNm4r-86" target="ZrMuteQqzwVxlPmZNm4r-106" edge="1">
            <mxGeometry width="100" height="100" relative="1" as="geometry" />
          </mxCell>
        </UserObject>
        <UserObject label="" lucidchartObjectId="DsWLL33WDRU~" id="ZrMuteQqzwVxlPmZNm4r-107">
          <mxCell style="html=1;jettySize=18;fontSize=11;strokeColor=#19967d;strokeOpacity=100;strokeWidth=3;rounded=1;arcSize=0;startArrow=none;;endArrow=block;endFill=1;;entryX=0.4960416666666688;entryY=-0.020833333333333332;entryPerimeter=1;" parent="1" target="ZrMuteQqzwVxlPmZNm4r-86" edge="1">
            <mxGeometry width="100" height="100" relative="1" as="geometry">
              <mxPoint x="120" y="-1318" as="sourcePoint" />
            </mxGeometry>
          </mxCell>
        </UserObject>
        <UserObject label="" lucidchartObjectId="DS-L~yEAFMaN" id="ZrMuteQqzwVxlPmZNm4r-108">
          <mxCell style="html=1;jettySize=18;fontSize=11;strokeColor=#c1e4f7;strokeOpacity=100;strokeWidth=3;rounded=1;arcSize=0;startArrow=none;;endArrow=block;endFill=1;;exitX=0.5;exitY=1;entryX=0.5;entryY=-0.020833333333333332;entryPerimeter=1;exitDx=0;exitDy=0;" parent="1" source="ZrMuteQqzwVxlPmZNm4r-49" target="ZrMuteQqzwVxlPmZNm4r-109" edge="1">
            <mxGeometry width="100" height="100" relative="1" as="geometry" />
          </mxCell>
        </UserObject>
        <UserObject label="RF Unpick - Full Order" lucidchartObjectId="FS-LZYruzcfT" id="ZrMuteQqzwVxlPmZNm4r-109">
          <mxCell style="html=1;whiteSpace=wrap;;fontSize=11;fontColor=#000000;spacing=3;strokeWidth=3;" parent="1" vertex="1">
            <mxGeometry x="-284" y="-1238" width="96" height="72" as="geometry" />
          </mxCell>
        </UserObject>
        <UserObject label="" lucidchartObjectId="eV-Ldg8smYR5" id="ZrMuteQqzwVxlPmZNm4r-110">
          <mxCell style="html=1;jettySize=18;fontSize=11;strokeColor=#c1e4f7;strokeOpacity=100;strokeWidth=3;rounded=1;arcSize=0;startArrow=none;;endArrow=block;endFill=1;;exitX=0.5;exitY=1.0208333333333333;exitPerimeter=1;entryX=0.5;entryY=-0.020833333333333332;entryPerimeter=1;" parent="1" source="ZrMuteQqzwVxlPmZNm4r-109" target="ZrMuteQqzwVxlPmZNm4r-111" edge="1">
            <mxGeometry width="100" height="100" relative="1" as="geometry" />
          </mxCell>
        </UserObject>
        <UserObject label="RF Unpick - Part Of Order" lucidchartObjectId="gV-LQRXkpUv6" id="ZrMuteQqzwVxlPmZNm4r-111">
          <mxCell style="html=1;whiteSpace=wrap;;fontSize=11;fontColor=#000000;spacing=3;strokeWidth=3;" parent="1" vertex="1">
            <mxGeometry x="-284" y="-1109" width="96" height="72" as="geometry" />
          </mxCell>
        </UserObject>
        <UserObject label="" lucidchartObjectId="HW-Lg7NM4t5g" id="ZrMuteQqzwVxlPmZNm4r-112">
          <mxCell style="html=1;jettySize=18;fontSize=11;strokeColor=#99d5ca;strokeOpacity=100;strokeWidth=3;rounded=1;arcSize=0;startArrow=none;;endArrow=block;endFill=1;;exitX=0.5;exitY=1;entryX=0.5;entryY=-0.020833333333333332;entryPerimeter=1;exitDx=0;exitDy=0;" parent="1" source="ZrMuteQqzwVxlPmZNm4r-121" target="ZrMuteQqzwVxlPmZNm4r-113" edge="1">
            <mxGeometry width="100" height="100" relative="1" as="geometry" />
          </mxCell>
        </UserObject>
        <UserObject label="RF Unpick Full Staged Order " lucidchartObjectId="IW-LOAbXp3b7" id="ZrMuteQqzwVxlPmZNm4r-113">
          <mxCell style="html=1;whiteSpace=wrap;;fontSize=11;fontColor=#000000;spacing=3;strokeWidth=3;" parent="1" vertex="1">
            <mxGeometry x="265" y="-558" width="96" height="72" as="geometry" />
          </mxCell>
        </UserObject>
        <UserObject label="" lucidchartObjectId="5X-LKefEp_Z2" id="ZrMuteQqzwVxlPmZNm4r-114">
          <mxCell style="html=1;jettySize=18;fontSize=11;strokeWidth=3;rounded=1;arcSize=0;startArrow=none;;endArrow=block;endFill=1;;exitX=0.5;exitY=1.0208333333333333;exitPerimeter=1;entryX=0.5;entryY=-0.020833333333333332;entryPerimeter=1;strokeColor=#D4E1F5;" parent="1" source="ZrMuteQqzwVxlPmZNm4r-111" target="ZrMuteQqzwVxlPmZNm4r-115" edge="1">
            <mxGeometry width="100" height="100" relative="1" as="geometry" />
          </mxCell>
        </UserObject>
        <UserObject label="RF Unpick Full Order - Different Lot/Expiry Date" lucidchartObjectId="6X-LVr-Q4fDr" id="ZrMuteQqzwVxlPmZNm4r-115">
          <mxCell style="html=1;whiteSpace=wrap;;fontSize=11;fontColor=#000000;spacing=3;strokeWidth=3;" parent="1" vertex="1">
            <mxGeometry x="-284" y="-988" width="96" height="72" as="geometry" />
          </mxCell>
        </UserObject>
        <mxCell id="ZrMuteQqzwVxlPmZNm4r-144" style="edgeStyle=none;rounded=0;orthogonalLoop=1;jettySize=auto;html=1;strokeColor=#D4E1F5;fontSize=128;entryX=0.5;entryY=0;entryDx=0;entryDy=0;" parent="1" source="ZrMuteQqzwVxlPmZNm4r-120" target="ZrMuteQqzwVxlPmZNm4r-145" edge="1">
          <mxGeometry relative="1" as="geometry">
            <mxPoint x="210" y="605" as="targetPoint" />
          </mxGeometry>
        </mxCell>
        <UserObject label="Dispatch - Multiple multi cartons onto multiple pallets" lucidchartObjectId="D3mNOM4nIQhY" id="ZrMuteQqzwVxlPmZNm4r-120">
          <mxCell style="html=1;whiteSpace=wrap;;fontSize=11;fontColor=#000000;spacing=3;strokeWidth=3;" parent="1" vertex="1">
            <mxGeometry x="250" y="435" width="96" height="72" as="geometry" />
          </mxCell>
        </UserObject>
        <UserObject label="WebUI Moving LPN Between Staging Locations" lucidchartObjectId="cTnNsTA2ZSaS" id="ZrMuteQqzwVxlPmZNm4r-121">
          <mxCell style="html=1;whiteSpace=wrap;;fontSize=11;fontColor=#000000;spacing=3;strokeOpacity=100;strokeWidth=3;" parent="1" vertex="1">
            <mxGeometry x="265" y="-728" width="96" height="72" as="geometry" />
          </mxCell>
        </UserObject>
        <UserObject label="" lucidchartObjectId="oTnNoIdV8PMt" id="ZrMuteQqzwVxlPmZNm4r-122">
          <mxCell style="html=1;jettySize=18;fontSize=11;strokeColor=#99d5ca;strokeOpacity=100;strokeWidth=3;rounded=1;arcSize=0;startArrow=none;;endArrow=block;endFill=1;;exitX=0.5;exitY=1;entryX=0.5;entryY=-0.020833333333333332;entryPerimeter=1;exitDx=0;exitDy=0;" parent="1" source="ZrMuteQqzwVxlPmZNm4r-51" target="ZrMuteQqzwVxlPmZNm4r-121" edge="1">
            <mxGeometry width="100" height="100" relative="1" as="geometry" />
          </mxCell>
        </UserObject>
        <UserObject label="" lucidchartObjectId="CXnNHnObR4pf" id="ZrMuteQqzwVxlPmZNm4r-123">
          <mxCell style="html=1;jettySize=18;fontSize=11;strokeWidth=3;rounded=1;arcSize=0;startArrow=none;;endArrow=block;endFill=1;;exitX=0.5;exitY=1.0208333333333333;exitPerimeter=1;entryX=0.5;entryY=-0.020833333333333332;entryPerimeter=1;" parent="1" source="ZrMuteQqzwVxlPmZNm4r-42" target="ZrMuteQqzwVxlPmZNm4r-124" edge="1">
            <mxGeometry width="100" height="100" relative="1" as="geometry" />
          </mxCell>
        </UserObject>
        <UserObject label="" lucidchartObjectId="Y8nN1IkFI4gT" id="ZrMuteQqzwVxlPmZNm4r-125">
          <mxCell style="html=1;jettySize=18;fontSize=11;strokeWidth=3;rounded=1;arcSize=0;startArrow=none;;endArrow=block;endFill=1;;exitX=0.5;exitY=1.0208333333333333;exitPerimeter=1;entryX=-0.015625;entryY=0.5;entryPerimeter=1;" parent="1" source="ZrMuteQqzwVxlPmZNm4r-124" target="ZrMuteQqzwVxlPmZNm4r-126" edge="1">
            <mxGeometry width="100" height="100" relative="1" as="geometry" />
          </mxCell>
        </UserObject>
        <UserObject label="RF LTL Loading - Load An LPN With Part Picked Orders" lucidchartObjectId="Z8nNPxE6S_l6" id="ZrMuteQqzwVxlPmZNm4r-126">
          <mxCell style="html=1;whiteSpace=wrap;;fontSize=11;fontColor=#000000;spacing=3;strokeWidth=3;" parent="1" vertex="1">
            <mxGeometry x="250" y="-67" width="96" height="72" as="geometry" />
          </mxCell>
        </UserObject>
        <UserObject label="" lucidchartObjectId="F9nNfZ4GQOwI" id="ZrMuteQqzwVxlPmZNm4r-127">
          <mxCell style="html=1;jettySize=18;fontSize=11;strokeWidth=3;rounded=1;arcSize=0;startArrow=none;;endArrow=block;endFill=1;;exitX=0.5;exitY=1.0208333333333333;exitPerimeter=1;entryX=0.5;entryY=-0.020833333333333332;entryPerimeter=1;" parent="1" source="ZrMuteQqzwVxlPmZNm4r-126" target="ZrMuteQqzwVxlPmZNm4r-128" edge="1">
            <mxGeometry width="100" height="100" relative="1" as="geometry" />
          </mxCell>
        </UserObject>
        <UserObject label="RF LTL Loading- Multi Carton Orders Split Across All Pallets" lucidchartObjectId="G9nNfMO_O3d7" id="ZrMuteQqzwVxlPmZNm4r-128">
          <mxCell style="html=1;whiteSpace=wrap;;fontSize=11;fontColor=#000000;spacing=3;strokeWidth=3;" parent="1" vertex="1">
            <mxGeometry x="250" y="125" width="96" height="72" as="geometry" />
          </mxCell>
        </UserObject>
        <UserObject label="" lucidchartObjectId="u_nNw71i~K0x" id="ZrMuteQqzwVxlPmZNm4r-129">
          <mxCell style="html=1;jettySize=18;fontSize=11;strokeWidth=3;rounded=1;arcSize=0;startArrow=none;;endArrow=block;endFill=1;;exitX=0.5;exitY=1.0208333333333333;exitPerimeter=1;entryX=0.5;entryY=-0.020833333333333332;entryPerimeter=1;" parent="1" source="ZrMuteQqzwVxlPmZNm4r-128" target="ZrMuteQqzwVxlPmZNm4r-120" edge="1">
            <mxGeometry width="100" height="100" relative="1" as="geometry" />
          </mxCell>
        </UserObject>
        <mxCell id="ZrMuteQqzwVxlPmZNm4r-145" value="Check Dispatch Confiramtion message" style="rounded=0;whiteSpace=wrap;html=1;" parent="1" vertex="1">
          <mxGeometry x="145" y="605" width="120" height="60" as="geometry" />
        </mxCell>
        <mxCell id="ZrMuteQqzwVxlPmZNm4r-159" value="" style="endArrow=none;dashed=1;html=1;strokeColor=#B20000;strokeWidth=3;fontSize=128;fillColor=#e51400;" parent="1" edge="1">
          <mxGeometry width="50" height="50" relative="1" as="geometry">
            <mxPoint x="10" y="-530" as="sourcePoint" />
            <mxPoint x="2170" y="-530" as="targetPoint" />
          </mxGeometry>
        </mxCell>
        <mxCell id="ZrMuteQqzwVxlPmZNm4r-160" value="" style="endArrow=none;dashed=1;html=1;strokeColor=#B20000;strokeWidth=3;fontSize=128;fillColor=#e51400;" parent="1" edge="1">
          <mxGeometry width="50" height="50" relative="1" as="geometry">
            <mxPoint x="40" y="369.99999999999955" as="sourcePoint" />
            <mxPoint x="2200" y="369.99999999999955" as="targetPoint" />
          </mxGeometry>
        </mxCell>
        <mxCell id="ZrMuteQqzwVxlPmZNm4r-163" value="" style="endArrow=none;dashed=1;html=1;strokeColor=#B20000;strokeWidth=3;fontSize=128;fillColor=#e51400;" parent="1" edge="1">
          <mxGeometry width="50" height="50" relative="1" as="geometry">
            <mxPoint x="23.999999999999545" y="1240" as="sourcePoint" />
            <mxPoint x="2184" y="1240" as="targetPoint" />
          </mxGeometry>
        </mxCell>
        <UserObject label="Dispatch - Full LPN&#39;s" lucidchartObjectId=".vVLEfP~YbVO" id="ZrMuteQqzwVxlPmZNm4r-43">
          <mxCell style="html=1;whiteSpace=wrap;;fontSize=11;fontColor=#000000;spacing=3;strokeOpacity=100;strokeWidth=3;" parent="1" vertex="1">
            <mxGeometry x="73" y="442" width="96" height="72" as="geometry" />
          </mxCell>
        </UserObject>
        <mxCell id="ZrMuteQqzwVxlPmZNm4r-166" style="edgeStyle=none;rounded=0;orthogonalLoop=1;jettySize=auto;html=1;exitX=0.5;exitY=1;exitDx=0;exitDy=0;strokeColor=#FFD966;strokeWidth=3;fontSize=128;" parent="1" source="ZrMuteQqzwVxlPmZNm4r-124" target="ZrMuteQqzwVxlPmZNm4r-43" edge="1">
          <mxGeometry relative="1" as="geometry">
            <mxPoint x="150" y="852.0000000000009" as="targetPoint" />
            <mxPoint x="121" y="-2976" as="sourcePoint" />
          </mxGeometry>
        </mxCell>
        <mxCell id="ZrMuteQqzwVxlPmZNm4r-167" style="edgeStyle=none;rounded=0;orthogonalLoop=1;jettySize=auto;html=1;exitX=0.5;exitY=1;exitDx=0;exitDy=0;strokeColor=#FFD966;strokeWidth=3;fontSize=128;" parent="1" source="ZrMuteQqzwVxlPmZNm4r-42" target="ZrMuteQqzwVxlPmZNm4r-124" edge="1">
          <mxGeometry relative="1" as="geometry">
            <mxPoint x="147.71858714533892" y="442" as="targetPoint" />
            <mxPoint x="121" y="-2976" as="sourcePoint" />
          </mxGeometry>
        </mxCell>
        <UserObject label="WebUI - Check In a Collection (Transport equipment) " lucidchartObjectId=".vVL_.q9fjx7" id="ZrMuteQqzwVxlPmZNm4r-42">
          <mxCell style="html=1;whiteSpace=wrap;;fontSize=11;fontColor=#000000;spacing=3;strokeOpacity=100;strokeWidth=3;" parent="1" vertex="1">
            <mxGeometry x="73" y="-271" width="96" height="72" as="geometry" />
          </mxCell>
        </UserObject>
        <UserObject label="RF Order Packing - Change Quantity (Negative) " lucidchartObjectId="NpWLEIG_Kt9h" id="ZrMuteQqzwVxlPmZNm4r-106">
          <mxCell style="html=1;whiteSpace=wrap;;fontSize=11;fontColor=#000000;spacing=3;strokeWidth=3;" parent="1" vertex="1">
            <mxGeometry x="-152" y="-708" width="96" height="72" as="geometry" />
          </mxCell>
        </UserObject>
        <mxCell id="ZrMuteQqzwVxlPmZNm4r-170" value="" style="endArrow=none;dashed=1;html=1;strokeColor=#B20000;strokeWidth=3;fontSize=128;fillColor=#e51400;" parent="1" edge="1">
          <mxGeometry width="50" height="50" relative="1" as="geometry">
            <mxPoint x="29.99999999999909" y="1800" as="sourcePoint" />
            <mxPoint x="2190.000000000001" y="1800" as="targetPoint" />
          </mxGeometry>
        </mxCell>
        <UserObject label="RF LTL Loading" lucidchartObjectId="DXnNyKKQnBO2" id="ZrMuteQqzwVxlPmZNm4r-124">
          <mxCell style="html=1;whiteSpace=wrap;;fontSize=11;fontColor=#000000;spacing=3;strokeWidth=3;" parent="1" vertex="1">
            <mxGeometry x="73" y="-128" width="96" height="72" as="geometry" />
          </mxCell>
        </UserObject>
        <UserObject label="" lucidchartObjectId=".vVLhLCV1whi" id="ZrMuteQqzwVxlPmZNm4r-171">
          <mxCell style="html=1;jettySize=18;fontSize=11;strokeColor=#19967d;strokeOpacity=100;strokeWidth=3;rounded=1;arcSize=0;startArrow=none;;endArrow=block;endFill=1;;exitX=0.5;exitY=1.0208333333333333;exitPerimeter=1;entryX=0.5014700940860216;entryY=-0.020833333333333332;entryPerimeter=1;" parent="1" source="ZrMuteQqzwVxlPmZNm4r-42" target="ZrMuteQqzwVxlPmZNm4r-124" edge="1">
            <mxGeometry width="100" height="100" relative="1" as="geometry">
              <mxPoint x="121" y="-199" as="sourcePoint" />
              <mxPoint x="121.13548387096762" y="442" as="targetPoint" />
            </mxGeometry>
          </mxCell>
        </UserObject>
        <mxCell id="U_gB3cjSZpgT2DLavrX5-1" value="&lt;font style=&quot;font-size: 15px&quot; color=&quot;#78A65F&quot;&gt;OUTBOUND&lt;/font&gt;" style="swimlane;html=1;childLayout=stackLayout;resizeParent=1;resizeParentMax=0;horizontal=1;startSize=20;horizontalStack=0;" parent="1" vertex="1">
          <mxGeometry x="-440" y="-4230" width="1490" height="2787" as="geometry" />
        </mxCell>
        <mxCell id="U_gB3cjSZpgT2DLavrX5-2" value="&lt;font style=&quot;font-size: 14px&quot; color=&quot;#78A65F&quot;&gt;ORDER CREATION&lt;br&gt;&lt;/font&gt;" style="swimlane;html=1;startSize=20;horizontal=0;" parent="U_gB3cjSZpgT2DLavrX5-1" vertex="1">
          <mxGeometry y="20" width="1490" height="310" as="geometry" />
        </mxCell>
        <UserObject label="WebUI Order Line Deletion " lucidchartObjectId=".vVLLpRDW4vy" id="ZrMuteQqzwVxlPmZNm4r-17">
          <mxCell style="html=1;whiteSpace=wrap;;fontSize=11;fontColor=#000000;spacing=3;strokeOpacity=100;strokeWidth=1;rounded=1;perimeterSpacing=1;" parent="U_gB3cjSZpgT2DLavrX5-2" vertex="1">
            <mxGeometry x="121" y="67" width="96" height="72" as="geometry" />
          </mxCell>
        </UserObject>
        <mxCell id="U_gB3cjSZpgT2DLavrX5-3" value="&lt;font style=&quot;font-size: 14px&quot; color=&quot;#78A65F&quot;&gt;WAVE PLANNING&lt;br&gt;&lt;/font&gt;" style="swimlane;html=1;startSize=20;horizontal=0;rounded=1;comic=1;strokeWidth=1;perimeterSpacing=1;" parent="U_gB3cjSZpgT2DLavrX5-1" vertex="1">
          <mxGeometry y="330" width="1490" height="491" as="geometry" />
        </mxCell>
        <UserObject label="WebUI Manual Wave Allocation - B2B - FIFO (Pallet Picks)" lucidchartObjectId="dOvMwCr7NXAL" id="ZrMuteQqzwVxlPmZNm4r-119">
          <mxCell style="html=1;whiteSpace=wrap;;fontSize=11;fontColor=#000000;spacing=3;strokeWidth=1;rounded=1;" parent="U_gB3cjSZpgT2DLavrX5-3" vertex="1">
            <mxGeometry x="91" y="257" width="96" height="72" as="geometry" />
          </mxCell>
        </UserObject>
        <UserObject label="" lucidchartObjectId="TKvM~NDfgVhR" id="ZrMuteQqzwVxlPmZNm4r-118">
          <mxCell style="html=1;jettySize=18;fontSize=11;strokeWidth=3;rounded=1;arcSize=0;startArrow=none;;endArrow=block;endFill=1;;exitX=0.5;exitY=1;exitDx=0;exitDy=0;entryX=0.5;entryY=0;entryDx=0;entryDy=0;" parent="U_gB3cjSZpgT2DLavrX5-3" source="ZrMuteQqzwVxlPmZNm4r-119" target="ZrMuteQqzwVxlPmZNm4r-55" edge="1">
            <mxGeometry width="100" height="100" relative="1" as="geometry">
              <mxPoint x="349" y="371" as="targetPoint" />
            </mxGeometry>
          </mxCell>
        </UserObject>
        <UserObject label="WebUI Manual Wave Planning (Shipment Selection)" lucidchartObjectId=".vVLN.6uvLFo" id="ZrMuteQqzwVxlPmZNm4r-5">
          <mxCell style="html=1;whiteSpace=wrap;;fontSize=11;fontColor=#000000;spacing=3;strokeOpacity=100;strokeWidth=1;rounded=1;perimeterSpacing=1;" parent="U_gB3cjSZpgT2DLavrX5-3" vertex="1">
            <mxGeometry x="91" y="150" width="96" height="72" as="geometry" />
          </mxCell>
        </UserObject>
        <UserObject label="WebUI Manual Wave Planning (Order Selection)" link="https://jira.int.kn/browse/TCL-27" lucidchartObjectId=".vVL0HiBw2vn" id="ZrMuteQqzwVxlPmZNm4r-4">
          <mxCell style="html=1;whiteSpace=wrap;;fontSize=11;fontColor=#000000;spacing=3;strokeOpacity=100;strokeWidth=1;rounded=1;perimeterSpacing=1;" parent="U_gB3cjSZpgT2DLavrX5-3" vertex="1">
            <mxGeometry x="377" y="150" width="96" height="72" as="geometry" />
          </mxCell>
        </UserObject>
        <UserObject label="" lucidchartObjectId=".vVLKwBbfbuC" id="ZrMuteQqzwVxlPmZNm4r-58">
          <mxCell style="html=1;jettySize=18;fontSize=11;strokeColor=#6d2424;strokeOpacity=100;strokeWidth=3;rounded=1;arcSize=0;startArrow=none;;endArrow=block;endFill=1;;entryX=0.5;entryY=0;exitX=0.5;exitY=1;exitDx=0;exitDy=0;entryDx=0;entryDy=0;" parent="U_gB3cjSZpgT2DLavrX5-3" source="ZrMuteQqzwVxlPmZNm4r-5" target="ZrMuteQqzwVxlPmZNm4r-119" edge="1">
            <mxGeometry width="100" height="100" relative="1" as="geometry">
              <mxPoint x="565" y="306" as="sourcePoint" />
            </mxGeometry>
          </mxCell>
        </UserObject>
        <UserObject label="WebUI Manual Allocation (B2B - LEFO)-&amp;nbsp; Less than full pallet quantity" lucidchartObjectId=".vVLW0~~8J9." id="ZrMuteQqzwVxlPmZNm4r-55">
          <mxCell style="html=1;whiteSpace=wrap;;fontSize=11;fontColor=#000000;spacing=3;strokeOpacity=100;strokeWidth=1;rounded=1;" parent="U_gB3cjSZpgT2DLavrX5-3" vertex="1">
            <mxGeometry x="91" y="362" width="96" height="72" as="geometry" />
          </mxCell>
        </UserObject>
        <mxCell id="U_gB3cjSZpgT2DLavrX5-4" value="&lt;div&gt;&lt;font style=&quot;font-size: 14px&quot; color=&quot;#78A65F&quot;&gt;ALLOCATION&lt;/font&gt;&lt;/div&gt;" style="swimlane;html=1;startSize=69;horizontal=0;" parent="U_gB3cjSZpgT2DLavrX5-1" vertex="1">
          <mxGeometry y="821" width="1490" height="402" as="geometry">
            <mxRectangle y="821" width="1490" height="69" as="alternateBounds" />
          </mxGeometry>
        </mxCell>
        <UserObject label="WebUI Manual Wave Allocation  (? picks) -   Multiple Items - Flowrack" lucidchartObjectId=".vVLqQHMH6m7" id="ZrMuteQqzwVxlPmZNm4r-40">
          <mxCell style="html=1;whiteSpace=wrap;;fontSize=11;fontColor=#000000;spacing=3;fillOpacity=0;fillColor=#000000;strokeWidth=1;rounded=1;comic=0;perimeterSpacing=1;shadow=0;strokeColor=#D6B656;" parent="U_gB3cjSZpgT2DLavrX5-4" vertex="1">
            <mxGeometry x="1236" y="29" width="96" height="72" as="geometry" />
          </mxCell>
        </UserObject>
        <UserObject label="WebUI Order  Cancelation and Removal From Wave" lucidchartObjectId=".vVL-yySB-Md" id="ZrMuteQqzwVxlPmZNm4r-10">
          <mxCell style="html=1;whiteSpace=wrap;;fontSize=11;fontColor=#000000;spacing=3;strokeOpacity=100;strokeWidth=1;rounded=1;comic=0;perimeterSpacing=1;shadow=0;strokeColor=#D6B656;" parent="U_gB3cjSZpgT2DLavrX5-4" vertex="1">
            <mxGeometry x="1120" y="29.000000000000398" width="96" height="72" as="geometry" />
          </mxCell>
        </UserObject>
        <UserObject label="?WebUI Manual Wave Allocation ( Piece Pick Work Assignment?)" lucidchartObjectId=".vVLiXWS68hy" id="ZrMuteQqzwVxlPmZNm4r-54">
          <mxCell style="html=1;whiteSpace=wrap;;fontSize=11;fontColor=#000000;spacing=3;strokeWidth=1;rounded=1;comic=0;perimeterSpacing=1;shadow=0;strokeColor=#D6B656;" parent="U_gB3cjSZpgT2DLavrX5-4" vertex="1">
            <mxGeometry x="1356" y="33.00000000000031" width="96" height="64" as="geometry" />
          </mxCell>
        </UserObject>
        <UserObject label="WebUI Manual Wave Allocation  (? picks) -   Multiple Items -  Non-Flowrack" lucidchartObjectId=".vVL4~Vy8jL." id="ZrMuteQqzwVxlPmZNm4r-39">
          <mxCell style="html=1;whiteSpace=wrap;;fontSize=11;fontColor=#000000;spacing=3;fillOpacity=0;fillColor=#000000;strokeWidth=1;rounded=1;comic=0;perimeterSpacing=1;strokeColor=#D6B656;" parent="U_gB3cjSZpgT2DLavrX5-4" vertex="1">
            <mxGeometry x="1236" y="118.5" width="96" height="72" as="geometry" />
          </mxCell>
        </UserObject>
        <UserObject label="WebUI Manual Wave Allocation (Carton Picks) -Different cartons" lucidchartObjectId=".vVLkxgRSqq_" id="ZrMuteQqzwVxlPmZNm4r-53">
          <mxCell style="html=1;whiteSpace=wrap;;fontSize=11;fontColor=#000000;spacing=3;strokeWidth=1;rounded=1;comic=0;perimeterSpacing=1;shadow=0;strokeColor=#D6B656;" parent="U_gB3cjSZpgT2DLavrX5-4" vertex="1">
            <mxGeometry x="1120" y="118.5" width="96" height="72" as="geometry" />
          </mxCell>
        </UserObject>
        <UserObject label=" Allocation Of Inventory With Multiple Expiration Dates In Pickface" lucidchartObjectId=".vVL4pVQn~yj" id="ZrMuteQqzwVxlPmZNm4r-38">
          <mxCell style="html=1;whiteSpace=wrap;;fontSize=11;fontColor=#000000;spacing=3;strokeWidth=1;rounded=1;comic=0;perimeterSpacing=1;shadow=0;strokeColor=#D6B656;" parent="U_gB3cjSZpgT2DLavrX5-4" vertex="1">
            <mxGeometry x="1356" y="118.5" width="96" height="72" as="geometry" />
          </mxCell>
        </UserObject>
        <UserObject label="WebUI Manual Wave Allocation (Carton Picks) - Multiple Carton Type Allocation" lucidchartObjectId=".vVL07Q1T3~1" id="ZrMuteQqzwVxlPmZNm4r-2">
          <mxCell style="html=1;whiteSpace=wrap;;fontSize=11;fontColor=#000000;spacing=3;strokeOpacity=100;strokeWidth=1;comic=0;shadow=0;rounded=1;strokeColor=#D6B656;perimeterSpacing=1;" parent="U_gB3cjSZpgT2DLavrX5-4" vertex="1">
            <mxGeometry x="1356" y="208.5" width="96" height="72" as="geometry" />
          </mxCell>
        </UserObject>
        <UserObject label="Allocation No stock (Negative)" lucidchartObjectId=".vVL~0iO5kdd" id="ZrMuteQqzwVxlPmZNm4r-8">
          <mxCell style="html=1;whiteSpace=wrap;;fontSize=11;fontColor=#000000;spacing=3;strokeOpacity=100;strokeWidth=1;rounded=1;perimeterSpacing=1;strokeColor=#D6B656;" parent="U_gB3cjSZpgT2DLavrX5-4" vertex="1">
            <mxGeometry x="1236" y="208.5" width="96" height="72" as="geometry" />
          </mxCell>
        </UserObject>
        <UserObject label="Allocation Of Inventory With No Pickface Settings (Negative)" lucidchartObjectId=".vVLdm.uFGVy" id="ZrMuteQqzwVxlPmZNm4r-9">
          <mxCell style="html=1;whiteSpace=wrap;;fontSize=11;fontColor=#000000;spacing=3;strokeOpacity=100;strokeWidth=1;rounded=1;perimeterSpacing=1;strokeColor=#D6B656;" parent="U_gB3cjSZpgT2DLavrX5-4" vertex="1">
            <mxGeometry x="1120" y="208.5" width="96" height="72" as="geometry" />
          </mxCell>
        </UserObject>
        <UserObject label="WebUI Manual Wave Allocation " lucidchartObjectId=".vVLSlnws_BT" id="ZrMuteQqzwVxlPmZNm4r-47">
          <mxCell style="html=1;whiteSpace=wrap;;fontSize=14;spacing=3;strokeOpacity=100;strokeWidth=3;fillColor=#d5e8d4;strokeColor=#82b366;rounded=1;" parent="U_gB3cjSZpgT2DLavrX5-4" vertex="1">
            <mxGeometry x="377" y="169" width="113" height="81" as="geometry" />
          </mxCell>
        </UserObject>
        <mxCell id="U_gB3cjSZpgT2DLavrX5-6" value="&lt;font style=&quot;font-size: 14px&quot; color=&quot;#78A65F&quot;&gt;REPLENISHMENT&lt;br&gt;&lt;/font&gt;" style="swimlane;html=1;startSize=20;horizontal=0;" parent="U_gB3cjSZpgT2DLavrX5-1" vertex="1">
          <mxGeometry y="1223" width="1490" height="759" as="geometry" />
        </mxCell>
        <mxCell id="U_gB3cjSZpgT2DLavrX5-25" value="&lt;font style=&quot;font-size: 14px&quot; color=&quot;#78A65F&quot;&gt;REPLENISHMENT&lt;br&gt;&lt;/font&gt;" style="swimlane;html=1;startSize=20;horizontal=0;" parent="U_gB3cjSZpgT2DLavrX5-6" vertex="1">
          <mxGeometry width="1490" height="759" as="geometry">
            <mxRectangle width="30" height="140" as="alternateBounds" />
          </mxGeometry>
        </mxCell>
        <UserObject label="RF pallet replenishment - Scan Incorrect LPN (Negative)" lucidchartObjectId=".vVLLuCzHj3n" id="U_gB3cjSZpgT2DLavrX5-28">
          <mxCell style="html=1;whiteSpace=wrap;;fontSize=11;fontColor=#000000;spacing=3;strokeOpacity=100;strokeWidth=3;" parent="U_gB3cjSZpgT2DLavrX5-25" vertex="1">
            <mxGeometry x="71" y="85" width="96" height="72" as="geometry" />
          </mxCell>
        </UserObject>
        <UserObject label="" lucidchartObjectId=".vVLG-VikOHq" id="U_gB3cjSZpgT2DLavrX5-29">
          <mxCell style="html=1;jettySize=18;fontSize=11;strokeColor=#28c9cc;strokeOpacity=100;strokeWidth=3;rounded=1;arcSize=0;startArrow=none;;endArrow=block;endFill=1;;exitX=0.5;exitY=1.0208333333333333;exitPerimeter=1;entryX=0.5;entryY=-0.020833333333333332;entryPerimeter=1;" parent="U_gB3cjSZpgT2DLavrX5-25" source="U_gB3cjSZpgT2DLavrX5-42" target="U_gB3cjSZpgT2DLavrX5-41" edge="1">
            <mxGeometry width="100" height="100" relative="1" as="geometry" />
          </mxCell>
        </UserObject>
        <UserObject label="" lucidchartObjectId=".vVLofUYMdH4" id="U_gB3cjSZpgT2DLavrX5-30">
          <mxCell style="html=1;jettySize=18;fontSize=11;strokeColor=#28c9cc;strokeOpacity=100;strokeWidth=3;rounded=1;arcSize=0;startArrow=none;;endArrow=block;endFill=1;;exitX=0.5;exitY=1;entryX=0.5;entryY=-0.020833333333333332;entryPerimeter=1;exitDx=0;exitDy=0;" parent="U_gB3cjSZpgT2DLavrX5-25" source="U_gB3cjSZpgT2DLavrX5-38" target="U_gB3cjSZpgT2DLavrX5-42" edge="1">
            <mxGeometry width="100" height="100" relative="1" as="geometry" />
          </mxCell>
        </UserObject>
        <UserObject label="" lucidchartObjectId=".vVLhCOw98GG" id="U_gB3cjSZpgT2DLavrX5-31">
          <mxCell style="html=1;jettySize=18;fontSize=11;strokeColor=#c92d39;strokeOpacity=100;strokeWidth=3;rounded=1;arcSize=0;startArrow=none;;endArrow=block;endFill=1;;exitX=0.5;exitY=1.0208333333333333;exitPerimeter=1;entryX=0.5;entryY=-0.020833333333333332;entryPerimeter=1;" parent="U_gB3cjSZpgT2DLavrX5-25" source="U_gB3cjSZpgT2DLavrX5-28" target="U_gB3cjSZpgT2DLavrX5-38" edge="1">
            <mxGeometry width="100" height="100" relative="1" as="geometry" />
          </mxCell>
        </UserObject>
        <UserObject label="RF pallet  Replenishment With Handheld Equipment (Negative)" lucidchartObjectId=".vVLH~wC2rEc" id="U_gB3cjSZpgT2DLavrX5-38">
          <mxCell style="html=1;whiteSpace=wrap;;fontSize=11;fontColor=#000000;spacing=3;strokeOpacity=100;strokeWidth=3;" parent="U_gB3cjSZpgT2DLavrX5-25" vertex="1">
            <mxGeometry x="71" y="205" width="96" height="72" as="geometry" />
          </mxCell>
        </UserObject>
        <UserObject label="Emergency RF case Replenishment - Empty Location" lucidchartObjectId=".vVLllC0J9Zr" id="ZrMuteQqzwVxlPmZNm4r-24">
          <mxCell style="html=1;whiteSpace=wrap;;fontSize=11;fontColor=#000000;spacing=3;strokeOpacity=100;strokeWidth=1;rounded=1;perimeterSpacing=1;strokeColor=#5696D6;" parent="U_gB3cjSZpgT2DLavrX5-25" vertex="1">
            <mxGeometry x="1141" y="187" width="96" height="72" as="geometry" />
          </mxCell>
        </UserObject>
        <UserObject label="Triggered RF case Replenishment" lucidchartObjectId=".vVL1J9eiRK7" id="ZrMuteQqzwVxlPmZNm4r-36">
          <mxCell style="html=1;whiteSpace=wrap;;fontSize=11;fontColor=#000000;spacing=3;strokeOpacity=100;strokeWidth=1;rounded=1;perimeterSpacing=1;strokeColor=#5696D6;" parent="U_gB3cjSZpgT2DLavrX5-25" vertex="1">
            <mxGeometry x="1260" y="187" width="96" height="72" as="geometry" />
          </mxCell>
        </UserObject>
        <UserObject label="Emergency RF case Replenishment - Empty Location" lucidchartObjectId=".vVLllC0J9Zr" id="U_gB3cjSZpgT2DLavrX5-26">
          <mxCell style="html=1;whiteSpace=wrap;;fontSize=11;fontColor=#000000;spacing=3;strokeOpacity=100;strokeWidth=1;rounded=1;perimeterSpacing=1;strokeColor=#5696D6;" parent="U_gB3cjSZpgT2DLavrX5-25" vertex="1">
            <mxGeometry x="1141" y="187" width="96" height="72" as="geometry" />
          </mxCell>
        </UserObject>
        <UserObject label="Triggered RF case Replenishment" lucidchartObjectId=".vVL1J9eiRK7" id="U_gB3cjSZpgT2DLavrX5-27">
          <mxCell style="html=1;whiteSpace=wrap;;fontSize=11;fontColor=#000000;spacing=3;strokeOpacity=100;strokeWidth=1;rounded=1;perimeterSpacing=1;strokeColor=#5696D6;" parent="U_gB3cjSZpgT2DLavrX5-25" vertex="1">
            <mxGeometry x="1260" y="187" width="96" height="72" as="geometry" />
          </mxCell>
        </UserObject>
        <UserObject label="Top-off RF case Replenishment" lucidchartObjectId=".vVLzS1Z9R6-" id="U_gB3cjSZpgT2DLavrX5-33">
          <mxCell style="html=1;whiteSpace=wrap;;fontSize=11;fontColor=#000000;spacing=3;strokeOpacity=100;strokeWidth=1;rounded=1;perimeterSpacing=1;strokeColor=#5696D6;" parent="U_gB3cjSZpgT2DLavrX5-25" vertex="1">
            <mxGeometry x="1260" y="279" width="96" height="72" as="geometry" />
          </mxCell>
        </UserObject>
        <UserObject label="RF pallet  Replenishment - Session Drop" lucidchartObjectId="ALVL61vblGDb" id="U_gB3cjSZpgT2DLavrX5-34">
          <mxCell style="html=1;whiteSpace=wrap;;fontSize=11;fontColor=#000000;spacing=3;strokeOpacity=100;strokeWidth=1;rounded=1;perimeterSpacing=1;" parent="U_gB3cjSZpgT2DLavrX5-25" vertex="1">
            <mxGeometry x="870.0000000000002" y="194.75" width="96" height="72" as="geometry" />
          </mxCell>
        </UserObject>
        <UserObject label="RF pallet replenishment  - Empty Location" lucidchartObjectId=".vVLG3KbtADb" id="U_gB3cjSZpgT2DLavrX5-43">
          <mxCell style="html=1;whiteSpace=wrap;;fontSize=11;fontColor=#000000;spacing=3;strokeOpacity=100;strokeWidth=1;rounded=1;perimeterSpacing=1;" parent="U_gB3cjSZpgT2DLavrX5-25" vertex="1">
            <mxGeometry x="990.0000000000003" y="197" width="96" height="72" as="geometry" />
          </mxCell>
        </UserObject>
        <UserObject label="Top-off RF case Replenishment" lucidchartObjectId=".vVLzS1Z9R6-" id="ZrMuteQqzwVxlPmZNm4r-74">
          <mxCell style="html=1;whiteSpace=wrap;;fontSize=11;fontColor=#000000;spacing=3;strokeOpacity=100;strokeWidth=1;rounded=1;perimeterSpacing=1;strokeColor=#5696D6;" parent="U_gB3cjSZpgT2DLavrX5-25" vertex="1">
            <mxGeometry x="1260" y="279" width="96" height="72" as="geometry" />
          </mxCell>
        </UserObject>
        <UserObject label="RF pallet  Replenishment - Session Drop" lucidchartObjectId="ALVL61vblGDb" id="ZrMuteQqzwVxlPmZNm4r-89">
          <mxCell style="html=1;whiteSpace=wrap;;fontSize=11;fontColor=#000000;spacing=3;strokeOpacity=100;strokeWidth=1;rounded=1;perimeterSpacing=1;strokeColor=#67AB9F;" parent="U_gB3cjSZpgT2DLavrX5-25" vertex="1">
            <mxGeometry x="870.0000000000002" y="194.75" width="96" height="72" as="geometry" />
          </mxCell>
        </UserObject>
        <UserObject label="RF pallet replenishment  - Empty Location" lucidchartObjectId=".vVLG3KbtADb" id="ZrMuteQqzwVxlPmZNm4r-18">
          <mxCell style="html=1;whiteSpace=wrap;;fontSize=11;fontColor=#000000;spacing=3;strokeOpacity=100;strokeWidth=1;rounded=1;perimeterSpacing=1;strokeColor=#67AB9F;" parent="U_gB3cjSZpgT2DLavrX5-25" vertex="1">
            <mxGeometry x="990.0000000000003" y="197" width="96" height="72" as="geometry" />
          </mxCell>
        </UserObject>
        <UserObject label="Emergency RF case Replenishment - Above Minimum QTY, Not Enough Stock To Fulfil Order" lucidchartObjectId=".vVL~g4jn9-n" id="ZrMuteQqzwVxlPmZNm4r-26">
          <mxCell style="html=1;whiteSpace=wrap;;fontSize=11;fontColor=#000000;spacing=3;strokeOpacity=100;strokeWidth=1;rounded=1;perimeterSpacing=1;strokeColor=#5696D6;" parent="U_gB3cjSZpgT2DLavrX5-25" vertex="1">
            <mxGeometry x="1260" y="377" width="96" height="93" as="geometry" />
          </mxCell>
        </UserObject>
        <UserObject label="RF pallet replenishment - Above Minimum QTY, Not Enough Stock To Fulfil Order" lucidchartObjectId=".vVL1Erp07Hh" id="U_gB3cjSZpgT2DLavrX5-20">
          <mxCell style="html=1;whiteSpace=wrap;;fontSize=11;fontColor=#000000;spacing=3;strokeOpacity=100;strokeWidth=1;rounded=1;perimeterSpacing=1;strokeColor=#67AB9F;" parent="U_gB3cjSZpgT2DLavrX5-25" vertex="1">
            <mxGeometry x="990.0000000000002" y="383.5" width="96" height="80" as="geometry" />
          </mxCell>
        </UserObject>
        <UserObject label="RF pallet replenishment - Below Minimum In Location" lucidchartObjectId=".vVLLzOHcC9c" id="ZrMuteQqzwVxlPmZNm4r-19">
          <mxCell style="html=1;whiteSpace=wrap;;fontSize=11;fontColor=#000000;spacing=3;strokeOpacity=100;strokeWidth=1;rounded=1;perimeterSpacing=1;strokeColor=#67AB9F;" parent="U_gB3cjSZpgT2DLavrX5-25" vertex="1">
            <mxGeometry x="990.0000000000003" y="292" width="96" height="72" as="geometry" />
          </mxCell>
        </UserObject>
        <UserObject label="RF pallet replenishment - Above Minimum QTY, Not Enough Stock To Fulfil Order" lucidchartObjectId=".vVL1Erp07Hh" id="ZrMuteQqzwVxlPmZNm4r-20">
          <mxCell style="html=1;whiteSpace=wrap;;fontSize=11;fontColor=#000000;spacing=3;strokeOpacity=100;strokeWidth=1;rounded=1;perimeterSpacing=1;strokeColor=#67AB9F;" parent="U_gB3cjSZpgT2DLavrX5-25" vertex="1">
            <mxGeometry x="870.0000000000002" y="287.75" width="96" height="80" as="geometry" />
          </mxCell>
        </UserObject>
        <UserObject label="Top-off RF Pallet Replenishment" lucidchartObjectId="ALVL61vblGDb" id="U_gB3cjSZpgT2DLavrX5-21">
          <mxCell style="html=1;whiteSpace=wrap;;fontSize=11;fontColor=#000000;spacing=3;strokeOpacity=100;strokeWidth=1;rounded=1;perimeterSpacing=1;strokeColor=#67AB9F;" parent="U_gB3cjSZpgT2DLavrX5-25" vertex="1">
            <mxGeometry x="870.0000000000002" y="389.25" width="96" height="72" as="geometry" />
          </mxCell>
        </UserObject>
        <UserObject label="Emergency RF case Replenishment Pickbin - Below Minimum In Location" lucidchartObjectId=".vVLDHT-9TAI" id="ZrMuteQqzwVxlPmZNm4r-25">
          <mxCell style="html=1;whiteSpace=wrap;;fontSize=11;fontColor=#000000;spacing=3;strokeOpacity=100;strokeWidth=1;rounded=1;perimeterSpacing=1;strokeColor=#5696D6;" parent="U_gB3cjSZpgT2DLavrX5-25" vertex="1">
            <mxGeometry x="1141" y="279" width="96" height="80" as="geometry" />
          </mxCell>
        </UserObject>
        <UserObject label="Emergency RF case Replenishment - Above Minimum QTY, Not Enough Stock To Fulfil Order" lucidchartObjectId=".vVL~g4jn9-n" id="U_gB3cjSZpgT2DLavrX5-40">
          <mxCell style="html=1;whiteSpace=wrap;;fontSize=11;fontColor=#000000;spacing=3;strokeOpacity=100;strokeWidth=1;rounded=1;perimeterSpacing=1;strokeColor=#5696D6;" parent="U_gB3cjSZpgT2DLavrX5-25" vertex="1">
            <mxGeometry x="1260" y="377" width="96" height="93" as="geometry" />
          </mxCell>
        </UserObject>
        <UserObject label="RF pallet replenishment - Above Minimum QTY, Not Enough Stock To Fulfil Order" lucidchartObjectId=".vVL1Erp07Hh" id="U_gB3cjSZpgT2DLavrX5-39">
          <mxCell style="html=1;whiteSpace=wrap;;fontSize=11;fontColor=#000000;spacing=3;strokeOpacity=100;strokeWidth=1;rounded=1;perimeterSpacing=1;" parent="U_gB3cjSZpgT2DLavrX5-25" vertex="1">
            <mxGeometry x="990.0000000000002" y="383.5" width="96" height="80" as="geometry" />
          </mxCell>
        </UserObject>
        <UserObject label="RF pallet replenishment - Below Minimum In Location" lucidchartObjectId=".vVLLzOHcC9c" id="U_gB3cjSZpgT2DLavrX5-37">
          <mxCell style="html=1;whiteSpace=wrap;;fontSize=11;fontColor=#000000;spacing=3;strokeOpacity=100;strokeWidth=1;rounded=1;perimeterSpacing=1;" parent="U_gB3cjSZpgT2DLavrX5-25" vertex="1">
            <mxGeometry x="990.0000000000003" y="292" width="96" height="72" as="geometry" />
          </mxCell>
        </UserObject>
        <UserObject label="RF pallet replenishment - Above Minimum QTY, Not Enough Stock To Fulfil Order" lucidchartObjectId=".vVL1Erp07Hh" id="U_gB3cjSZpgT2DLavrX5-36">
          <mxCell style="html=1;whiteSpace=wrap;;fontSize=11;fontColor=#000000;spacing=3;strokeOpacity=100;strokeWidth=1;rounded=1;perimeterSpacing=1;" parent="U_gB3cjSZpgT2DLavrX5-25" vertex="1">
            <mxGeometry x="870.0000000000002" y="287.75" width="96" height="80" as="geometry" />
          </mxCell>
        </UserObject>
        <UserObject label="Top-off RF Pallet Replenishment" lucidchartObjectId="ALVL61vblGDb" id="U_gB3cjSZpgT2DLavrX5-35">
          <mxCell style="html=1;whiteSpace=wrap;;fontSize=11;fontColor=#000000;spacing=3;strokeOpacity=100;strokeWidth=1;rounded=1;perimeterSpacing=1;" parent="U_gB3cjSZpgT2DLavrX5-25" vertex="1">
            <mxGeometry x="870.0000000000002" y="389.25" width="96" height="72" as="geometry" />
          </mxCell>
        </UserObject>
        <UserObject label="Emergency RF case Replenishment Pickbin - Below Minimum In Location" lucidchartObjectId=".vVLDHT-9TAI" id="U_gB3cjSZpgT2DLavrX5-32">
          <mxCell style="html=1;whiteSpace=wrap;;fontSize=11;fontColor=#000000;spacing=3;strokeOpacity=100;strokeWidth=1;rounded=1;perimeterSpacing=1;strokeColor=#5696D6;" parent="U_gB3cjSZpgT2DLavrX5-25" vertex="1">
            <mxGeometry x="1141" y="279" width="96" height="80" as="geometry" />
          </mxCell>
        </UserObject>
        <UserObject label="RF pallet replenishment - Above Minimum QTY, Not Enough Stock To Fulfil Order" lucidchartObjectId=".vVL1Erp07Hh" id="U_gB3cjSZpgT2DLavrX5-44">
          <mxCell style="html=1;whiteSpace=wrap;;fontSize=11;fontColor=#000000;spacing=3;strokeOpacity=100;strokeWidth=1;rounded=1;perimeterSpacing=1;" parent="U_gB3cjSZpgT2DLavrX5-25" vertex="1">
            <mxGeometry x="870.0000000000002" y="288" width="96" height="80" as="geometry" />
          </mxCell>
        </UserObject>
        <UserObject label="Flowrack Replenishment With Forktruck Equipment (Negative)" lucidchartObjectId=".vVLsWGwoKKf" id="U_gB3cjSZpgT2DLavrX5-41">
          <mxCell style="html=1;whiteSpace=wrap;;fontSize=11;fontColor=#000000;spacing=3;strokeOpacity=100;strokeWidth=3;rounded=1;" parent="U_gB3cjSZpgT2DLavrX5-25" vertex="1">
            <mxGeometry x="71" y="475" width="96" height="72" as="geometry" />
          </mxCell>
        </UserObject>
        <UserObject label="Scan Incorrect Location On Replenishment (Negative)" lucidchartObjectId=".vVLjdvRrUWc" id="U_gB3cjSZpgT2DLavrX5-42">
          <mxCell style="html=1;whiteSpace=wrap;;fontSize=11;fontColor=#000000;spacing=3;strokeOpacity=100;strokeWidth=3;rounded=1;" parent="U_gB3cjSZpgT2DLavrX5-25" vertex="1">
            <mxGeometry x="71" y="346" width="96" height="72" as="geometry" />
          </mxCell>
        </UserObject>
        <UserObject label="RF pallet replenishment - Scan Incorrect LPN (Negative)" lucidchartObjectId=".vVLLuCzHj3n" id="ZrMuteQqzwVxlPmZNm4r-32">
          <mxCell style="html=1;whiteSpace=wrap;;fontSize=11;fontColor=#000000;spacing=3;strokeOpacity=100;strokeWidth=3;" parent="U_gB3cjSZpgT2DLavrX5-6" vertex="1">
            <mxGeometry x="71" y="85" width="96" height="72" as="geometry" />
          </mxCell>
        </UserObject>
        <UserObject label="" lucidchartObjectId=".vVLG-VikOHq" id="ZrMuteQqzwVxlPmZNm4r-34">
          <mxCell style="html=1;jettySize=18;fontSize=11;strokeColor=#28c9cc;strokeOpacity=100;strokeWidth=3;rounded=1;arcSize=0;startArrow=none;;endArrow=block;endFill=1;;exitX=0.5;exitY=1.0208333333333333;exitPerimeter=1;entryX=0.5;entryY=-0.020833333333333332;entryPerimeter=1;" parent="U_gB3cjSZpgT2DLavrX5-6" source="ZrMuteQqzwVxlPmZNm4r-30" target="ZrMuteQqzwVxlPmZNm4r-31" edge="1">
            <mxGeometry width="100" height="100" relative="1" as="geometry" />
          </mxCell>
        </UserObject>
        <UserObject label="" lucidchartObjectId=".vVLofUYMdH4" id="ZrMuteQqzwVxlPmZNm4r-71">
          <mxCell style="html=1;jettySize=18;fontSize=11;strokeColor=#28c9cc;strokeOpacity=100;strokeWidth=3;rounded=1;arcSize=0;startArrow=none;;endArrow=block;endFill=1;;exitX=0.5;exitY=1;entryX=0.5;entryY=-0.020833333333333332;entryPerimeter=1;exitDx=0;exitDy=0;" parent="U_gB3cjSZpgT2DLavrX5-6" source="ZrMuteQqzwVxlPmZNm4r-33" target="ZrMuteQqzwVxlPmZNm4r-30" edge="1">
            <mxGeometry width="100" height="100" relative="1" as="geometry" />
          </mxCell>
        </UserObject>
        <UserObject label="" lucidchartObjectId=".vVLhCOw98GG" id="ZrMuteQqzwVxlPmZNm4r-77">
          <mxCell style="html=1;jettySize=18;fontSize=11;strokeColor=#c92d39;strokeOpacity=100;strokeWidth=3;rounded=1;arcSize=0;startArrow=none;;endArrow=block;endFill=1;;exitX=0.5;exitY=1.0208333333333333;exitPerimeter=1;entryX=0.5;entryY=-0.020833333333333332;entryPerimeter=1;" parent="U_gB3cjSZpgT2DLavrX5-6" source="ZrMuteQqzwVxlPmZNm4r-32" target="ZrMuteQqzwVxlPmZNm4r-33" edge="1">
            <mxGeometry width="100" height="100" relative="1" as="geometry" />
          </mxCell>
        </UserObject>
        <UserObject label="RF pallet  Replenishment With Handheld Equipment (Negative)" lucidchartObjectId=".vVLH~wC2rEc" id="ZrMuteQqzwVxlPmZNm4r-33">
          <mxCell style="html=1;whiteSpace=wrap;;fontSize=11;fontColor=#000000;spacing=3;strokeOpacity=100;strokeWidth=3;" parent="U_gB3cjSZpgT2DLavrX5-6" vertex="1">
            <mxGeometry x="71" y="205" width="96" height="72" as="geometry" />
          </mxCell>
        </UserObject>
        <UserObject label="Flowrack Replenishment With Forktruck Equipment (Negative)" lucidchartObjectId=".vVLsWGwoKKf" id="ZrMuteQqzwVxlPmZNm4r-31">
          <mxCell style="html=1;whiteSpace=wrap;;fontSize=11;fontColor=#000000;spacing=3;strokeOpacity=100;strokeWidth=3;rounded=1;" parent="U_gB3cjSZpgT2DLavrX5-6" vertex="1">
            <mxGeometry x="71" y="475" width="96" height="72" as="geometry" />
          </mxCell>
        </UserObject>
        <UserObject label="Scan Incorrect Location On Replenishment (Negative)" lucidchartObjectId=".vVLjdvRrUWc" id="ZrMuteQqzwVxlPmZNm4r-30">
          <mxCell style="html=1;whiteSpace=wrap;;fontSize=11;fontColor=#000000;spacing=3;strokeOpacity=100;strokeWidth=3;rounded=1;" parent="U_gB3cjSZpgT2DLavrX5-6" vertex="1">
            <mxGeometry x="71" y="346" width="96" height="72" as="geometry" />
          </mxCell>
        </UserObject>
        <mxCell id="U_gB3cjSZpgT2DLavrX5-7" value="&lt;font style=&quot;font-size: 14px&quot; color=&quot;#78A65F&quot;&gt;PICKING&lt;br&gt;&lt;/font&gt;" style="swimlane;html=1;startSize=20;horizontal=0;" parent="U_gB3cjSZpgT2DLavrX5-1" vertex="1">
          <mxGeometry y="1982" width="1490" height="505" as="geometry" />
        </mxCell>
        <UserObject label="RF carton Picking - Scan EAN instead of Item Code" lucidchartObjectId="AjWLmgT_bsjo" id="ZrMuteQqzwVxlPmZNm4r-104">
          <mxCell style="html=1;whiteSpace=wrap;;fontSize=11;fontColor=#000000;spacing=3;strokeWidth=3;" parent="U_gB3cjSZpgT2DLavrX5-7" vertex="1">
            <mxGeometry x="1054" y="128" width="96" height="72" as="geometry" />
          </mxCell>
        </UserObject>
        <UserObject label="" lucidchartObjectId="yjWLZI0-K551" id="ZrMuteQqzwVxlPmZNm4r-103">
          <mxCell style="html=1;jettySize=18;fontSize=11;strokeColor=#6F0000;strokeOpacity=100;strokeWidth=3;rounded=1;arcSize=0;startArrow=none;;endArrow=block;endFill=1;;exitX=0.5;exitY=1.0208333333333333;exitPerimeter=1;entryX=0.5;entryY=-0.020833333333333332;entryPerimeter=1;fillColor=#a20025;" parent="U_gB3cjSZpgT2DLavrX5-7" source="ZrMuteQqzwVxlPmZNm4r-102" target="ZrMuteQqzwVxlPmZNm4r-104" edge="1">
            <mxGeometry width="100" height="100" relative="1" as="geometry" />
          </mxCell>
        </UserObject>
        <UserObject label="RF carton Picking - 2 Items With Same EAN" lucidchartObjectId="3hWLlkM~54B_" id="ZrMuteQqzwVxlPmZNm4r-102">
          <mxCell style="html=1;whiteSpace=wrap;;fontSize=11;fontColor=#000000;spacing=3;strokeWidth=3;" parent="U_gB3cjSZpgT2DLavrX5-7" vertex="1">
            <mxGeometry x="1054" y="8" width="96" height="72" as="geometry" />
          </mxCell>
        </UserObject>
        <UserObject label="" lucidchartObjectId="KaWLSkqLJ9NO" id="ZrMuteQqzwVxlPmZNm4r-97">
          <mxCell style="html=1;jettySize=18;fontSize=11;strokeColor=#6F0000;strokeOpacity=100;strokeWidth=3;rounded=1;arcSize=0;edgeStyle=orthogonalEdgeStyle;startArrow=none;;endArrow=block;endFill=1;;entryX=0.5;entryY=-0.020833333333333332;entryPerimeter=1;fillColor=#a20025;" parent="U_gB3cjSZpgT2DLavrX5-7" source="ZrMuteQqzwVxlPmZNm4r-104" target="ZrMuteQqzwVxlPmZNm4r-96" edge="1">
            <mxGeometry width="100" height="100" relative="1" as="geometry" />
          </mxCell>
        </UserObject>
        <UserObject label="RF carton Picking - Session Drop" lucidchartObjectId="R~VLGetVZpA6" id="ZrMuteQqzwVxlPmZNm4r-96">
          <mxCell style="html=1;whiteSpace=wrap;;fontSize=11;fontColor=#000000;spacing=3;strokeWidth=3;" parent="U_gB3cjSZpgT2DLavrX5-7" vertex="1">
            <mxGeometry x="1054" y="248" width="96" height="72" as="geometry" />
          </mxCell>
        </UserObject>
        <UserObject label="Order Picking - More Than Expected (Negative)" lucidchartObjectId=".vVLx9R2JAR_" id="ZrMuteQqzwVxlPmZNm4r-59">
          <mxCell style="html=1;whiteSpace=wrap;;fontSize=11;fontColor=#000000;spacing=3;strokeOpacity=100;strokeWidth=3;" parent="U_gB3cjSZpgT2DLavrX5-7" vertex="1">
            <mxGeometry x="271" y="238" width="96" height="72" as="geometry" />
          </mxCell>
        </UserObject>
        <UserObject label="Order Picking - Confirm Wrong Item (Negative)" lucidchartObjectId=".vVLBFFsnQis" id="ZrMuteQqzwVxlPmZNm4r-61">
          <mxCell style="html=1;whiteSpace=wrap;;fontSize=11;fontColor=#000000;spacing=3;strokeOpacity=100;strokeWidth=3;" parent="U_gB3cjSZpgT2DLavrX5-7" vertex="1">
            <mxGeometry x="271" y="-2" width="96" height="72" as="geometry" />
          </mxCell>
        </UserObject>
        <mxCell id="ZrMuteQqzwVxlPmZNm4r-173" value="" style="edgeStyle=none;rounded=0;orthogonalLoop=1;jettySize=auto;html=1;strokeColor=#FFD966;strokeWidth=3;fontSize=128;" parent="U_gB3cjSZpgT2DLavrX5-7" source="ZrMuteQqzwVxlPmZNm4r-62" target="ZrMuteQqzwVxlPmZNm4r-61" edge="1">
          <mxGeometry relative="1" as="geometry" />
        </mxCell>
        <UserObject label="Order Picking - Confirm Wrong Location (Negative)" lucidchartObjectId=".vVLVcgs1l04" id="ZrMuteQqzwVxlPmZNm4r-62">
          <mxCell style="html=1;whiteSpace=wrap;;fontSize=11;fontColor=#000000;spacing=3;strokeOpacity=100;strokeWidth=3;" parent="U_gB3cjSZpgT2DLavrX5-7" vertex="1">
            <mxGeometry x="271" y="118" width="96" height="72" as="geometry" />
          </mxCell>
        </UserObject>
        <UserObject label="" lucidchartObjectId=".vVLjQ2.awin" id="ZrMuteQqzwVxlPmZNm4r-63">
          <mxCell style="html=1;jettySize=18;fontSize=11;strokeColor=#3A5431;strokeOpacity=100;strokeWidth=3;rounded=1;arcSize=0;startArrow=none;;endArrow=block;endFill=1;;exitX=0.5;exitY=1.0208333333333333;exitPerimeter=1;entryX=0.5;entryY=-0.020833333333333332;entryPerimeter=1;fillColor=#6d8764;" parent="U_gB3cjSZpgT2DLavrX5-7" source="ZrMuteQqzwVxlPmZNm4r-61" target="ZrMuteQqzwVxlPmZNm4r-62" edge="1">
            <mxGeometry width="100" height="100" relative="1" as="geometry" />
          </mxCell>
        </UserObject>
        <UserObject label="" lucidchartObjectId=".vVLm0eqwnEj" id="ZrMuteQqzwVxlPmZNm4r-64">
          <mxCell style="html=1;jettySize=18;fontSize=11;strokeColor=#3A5431;strokeOpacity=100;strokeWidth=3;rounded=1;arcSize=0;startArrow=none;;endArrow=block;endFill=1;;exitX=0.5;exitY=1.0208333333333333;exitPerimeter=1;fillColor=#6d8764;" parent="U_gB3cjSZpgT2DLavrX5-7" source="ZrMuteQqzwVxlPmZNm4r-59" edge="1">
            <mxGeometry width="100" height="100" relative="1" as="geometry">
              <mxPoint x="319" y="358" as="targetPoint" />
            </mxGeometry>
          </mxCell>
        </UserObject>
        <UserObject label="" lucidchartObjectId=".vVL912Sn9fZ" id="ZrMuteQqzwVxlPmZNm4r-65">
          <mxCell style="html=1;jettySize=18;fontSize=11;strokeColor=#3A5431;strokeOpacity=100;strokeWidth=3;rounded=1;arcSize=0;startArrow=none;;endArrow=block;endFill=1;;exitX=0.5;exitY=1.0208333333333333;exitPerimeter=1;entryX=0.5;entryY=-0.020833333333333332;entryPerimeter=1;fillColor=#6d8764;" parent="U_gB3cjSZpgT2DLavrX5-7" source="ZrMuteQqzwVxlPmZNm4r-62" target="ZrMuteQqzwVxlPmZNm4r-59" edge="1">
            <mxGeometry width="100" height="100" relative="1" as="geometry" />
          </mxCell>
        </UserObject>
        <mxCell id="dMTzNqRDoueroPHGhxKO-1" value="" style="group" vertex="1" connectable="0" parent="U_gB3cjSZpgT2DLavrX5-7">
          <mxGeometry x="770" y="193" width="209" height="162" as="geometry" />
        </mxCell>
        <UserObject label="RF carton Picking - Single Line" lucidchartObjectId="w9VLIz-hCp22" id="ZrMuteQqzwVxlPmZNm4r-94">
          <mxCell style="html=1;whiteSpace=wrap;;fontSize=11;fontColor=#000000;spacing=3;strokeOpacity=100;strokeWidth=1;rounded=1;perimeterSpacing=1;strokeColor=#485E80;" parent="dMTzNqRDoueroPHGhxKO-1" vertex="1">
            <mxGeometry width="96" height="72" as="geometry" />
          </mxCell>
        </UserObject>
        <UserObject label="RF carton Picking - Multiple Carton" lucidchartObjectId="W-VLlLLOOaS." id="ZrMuteQqzwVxlPmZNm4r-95">
          <mxCell style="html=1;whiteSpace=wrap;;fontSize=11;fontColor=#000000;spacing=3;strokeOpacity=100;strokeWidth=1;rounded=1;perimeterSpacing=1;strokeColor=#485E80;" parent="dMTzNqRDoueroPHGhxKO-1" vertex="1">
            <mxGeometry x="113" width="96" height="72" as="geometry" />
          </mxCell>
        </UserObject>
        <UserObject label="RF Full Pallet Picking" lucidchartObjectId=".vVLDz3QWuJy" id="ZrMuteQqzwVxlPmZNm4r-41">
          <mxCell style="html=1;whiteSpace=wrap;;fontSize=11;fontColor=#000000;spacing=3;strokeOpacity=100;strokeWidth=1;rounded=1;perimeterSpacing=1;strokeColor=#485E80;" parent="dMTzNqRDoueroPHGhxKO-1" vertex="1">
            <mxGeometry x="113" y="90" width="96" height="72" as="geometry" />
          </mxCell>
        </UserObject>
        <UserObject label="RF Each Picking - Bring Location Below Minimum" lucidchartObjectId=".vVL_NpEDnmk" id="ZrMuteQqzwVxlPmZNm4r-76">
          <mxCell style="html=1;whiteSpace=wrap;;fontSize=11;fontColor=#000000;spacing=3;strokeOpacity=100;strokeWidth=1;rounded=1;perimeterSpacing=1;strokeColor=#485E80;" parent="dMTzNqRDoueroPHGhxKO-1" vertex="1">
            <mxGeometry y="90" width="96" height="72" as="geometry" />
          </mxCell>
        </UserObject>
        <UserObject label="Order Picking - Less Than Expected (Negative)" lucidchartObjectId=".vVLI6Z0XIyK" id="ZrMuteQqzwVxlPmZNm4r-60">
          <mxCell style="html=1;whiteSpace=wrap;;fontSize=11;fontColor=#000000;spacing=3;strokeOpacity=100;strokeWidth=3;" parent="U_gB3cjSZpgT2DLavrX5-7" vertex="1">
            <mxGeometry x="271" y="358" width="96" height="72" as="geometry" />
          </mxCell>
        </UserObject>
        <mxCell id="U_gB3cjSZpgT2DLavrX5-8" value="&lt;font style=&quot;font-size: 14px&quot; color=&quot;#78A65F&quot;&gt;PACKING&lt;br&gt;&lt;/font&gt;" style="swimlane;html=1;startSize=20;horizontal=0;" parent="U_gB3cjSZpgT2DLavrX5-1" vertex="1">
          <mxGeometry y="2487" width="1490" height="150" as="geometry" />
        </mxCell>
        <mxCell id="U_gB3cjSZpgT2DLavrX5-9" value="&lt;font style=&quot;font-size: 14px&quot; color=&quot;#78A65F&quot;&gt;LOADING DISPATCG&lt;br&gt;&lt;/font&gt;" style="swimlane;html=1;startSize=20;horizontal=0;" parent="U_gB3cjSZpgT2DLavrX5-1" vertex="1">
          <mxGeometry y="2637" width="1490" height="150" as="geometry" />
        </mxCell>
        <UserObject label="" lucidchartObjectId=".vVLw.2oe--I" id="ZrMuteQqzwVxlPmZNm4r-29">
          <mxCell style="html=1;jettySize=18;fontSize=11;strokeColor=#19967d;strokeOpacity=100;strokeWidth=3;rounded=1;arcSize=0;startArrow=none;;endArrow=block;endFill=1;;exitX=0.5;exitY=1.0208333333333333;exitPerimeter=1;entryX=0.5;entryY=-0.020833333333333332;entryPerimeter=1;" parent="U_gB3cjSZpgT2DLavrX5-1" source="ZrMuteQqzwVxlPmZNm4r-4" target="ZrMuteQqzwVxlPmZNm4r-47" edge="1">
            <mxGeometry width="100" height="100" relative="1" as="geometry" />
          </mxCell>
        </UserObject>
        <UserObject label="" lucidchartObjectId=".vVLq2B-WHgK" id="ZrMuteQqzwVxlPmZNm4r-46">
          <mxCell style="html=1;jettySize=18;fontSize=11;strokeColor=#000000;strokeOpacity=100;strokeWidth=1;rounded=1;arcSize=0;startArrow=none;;endArrow=block;endFill=1;;exitX=1;exitY=0.5;exitDx=0;exitDy=0;edgeStyle=orthogonalEdgeStyle;" parent="U_gB3cjSZpgT2DLavrX5-1" source="ZrMuteQqzwVxlPmZNm4r-4" edge="1">
            <mxGeometry width="100" height="100" relative="1" as="geometry">
              <mxPoint x="870" y="1010" as="targetPoint" />
              <Array as="points">
                <mxPoint x="710" y="516" />
                <mxPoint x="710" y="770" />
                <mxPoint x="870" y="770" />
              </Array>
            </mxGeometry>
          </mxCell>
        </UserObject>
        <UserObject label="" lucidchartObjectId=".vVLasI-soPa" id="ZrMuteQqzwVxlPmZNm4r-23">
          <mxCell style="html=1;jettySize=18;fontSize=11;strokeColor=#000000;strokeOpacity=100;strokeWidth=1;rounded=1;arcSize=0;startArrow=none;;endArrow=block;endFill=1;;exitX=0.5;exitY=1;exitDx=0;exitDy=0;edgeStyle=orthogonalEdgeStyle;" parent="U_gB3cjSZpgT2DLavrX5-1" source="ZrMuteQqzwVxlPmZNm4r-47" edge="1">
            <mxGeometry width="100" height="100" relative="1" as="geometry">
              <mxPoint x="980" y="1370" as="targetPoint" />
            </mxGeometry>
          </mxCell>
        </UserObject>
        <UserObject label="" lucidchartObjectId=".vVLE75FeV0b" id="ZrMuteQqzwVxlPmZNm4r-70">
          <mxCell style="html=1;jettySize=18;fontSize=11;strokeColor=#000000;strokeOpacity=100;strokeWidth=1;rounded=1;arcSize=0;startArrow=none;;endArrow=block;endFill=1;;exitX=1;exitY=0.5;edgeStyle=orthogonalEdgeStyle;exitDx=0;exitDy=0;" parent="U_gB3cjSZpgT2DLavrX5-1" source="ZrMuteQqzwVxlPmZNm4r-47" edge="1">
            <mxGeometry width="100" height="100" relative="1" as="geometry">
              <mxPoint x="1240" y="1370" as="targetPoint" />
              <Array as="points">
                <mxPoint x="640" y="1026" />
                <mxPoint x="640" y="1180" />
                <mxPoint x="1240" y="1180" />
                <mxPoint x="1240" y="1350" />
              </Array>
            </mxGeometry>
          </mxCell>
        </UserObject>
        <UserObject label="" lucidchartObjectId="qnvM3x.LHWGt" id="ZrMuteQqzwVxlPmZNm4r-117">
          <mxCell style="html=1;jettySize=18;fontSize=11;strokeWidth=3;rounded=1;arcSize=0;startArrow=none;;endArrow=block;endFill=1;;exitX=0.5;exitY=1;entryX=0.5;entryY=-0.020833333333333332;entryPerimeter=1;fillColor=#a20025;strokeColor=#6F0000;exitDx=0;exitDy=0;" parent="U_gB3cjSZpgT2DLavrX5-1" source="ZrMuteQqzwVxlPmZNm4r-47" target="ZrMuteQqzwVxlPmZNm4r-95" edge="1">
            <mxGeometry width="100" height="100" relative="1" as="geometry" />
          </mxCell>
        </UserObject>
        <UserObject label="" lucidchartObjectId="emvMnEjZ.BYP" id="ZrMuteQqzwVxlPmZNm4r-174">
          <mxCell style="html=1;jettySize=18;fontSize=11;strokeWidth=3;rounded=1;arcSize=0;startArrow=none;;endArrow=block;endFill=1;;exitX=0.5;exitY=1;fillColor=#6d8764;strokeColor=#3A5431;exitDx=0;exitDy=0;entryX=0.5;entryY=0;entryDx=0;entryDy=0;" parent="U_gB3cjSZpgT2DLavrX5-1" source="ZrMuteQqzwVxlPmZNm4r-47" target="ZrMuteQqzwVxlPmZNm4r-102" edge="1">
            <mxGeometry width="100" height="100" relative="1" as="geometry">
              <mxPoint x="1239" y="2872" as="targetPoint" />
              <mxPoint x="582" y="1284" as="sourcePoint" />
            </mxGeometry>
          </mxCell>
        </UserObject>
        <UserObject label="" lucidchartObjectId=".vVL6wdnF~gV" id="ZrMuteQqzwVxlPmZNm4r-35">
          <mxCell style="html=1;jettySize=18;fontSize=11;strokeColor=#c92d39;strokeOpacity=100;strokeWidth=3;rounded=1;arcSize=0;startArrow=none;;endArrow=block;endFill=1;;exitX=0.5;exitY=1;entryX=0.5;entryY=-0.020833333333333332;entryPerimeter=1;exitDx=0;exitDy=0;" parent="U_gB3cjSZpgT2DLavrX5-1" source="ZrMuteQqzwVxlPmZNm4r-47" target="ZrMuteQqzwVxlPmZNm4r-32" edge="1">
            <mxGeometry width="100" height="100" relative="1" as="geometry" />
          </mxCell>
        </UserObject>
        <UserObject label="" lucidchartObjectId="emvMnEjZ.BYP" id="ZrMuteQqzwVxlPmZNm4r-116">
          <mxCell style="html=1;jettySize=18;fontSize=11;strokeWidth=3;rounded=1;arcSize=0;startArrow=none;;endArrow=block;endFill=1;;exitX=0.5;exitY=1;fillColor=#6d8764;strokeColor=#3A5431;exitDx=0;exitDy=0;entryX=0.5;entryY=0;entryDx=0;entryDy=0;" parent="U_gB3cjSZpgT2DLavrX5-1" source="ZrMuteQqzwVxlPmZNm4r-47" target="ZrMuteQqzwVxlPmZNm4r-61" edge="1">
            <mxGeometry width="100" height="100" relative="1" as="geometry">
              <mxPoint x="1229" y="2747" as="targetPoint" />
            </mxGeometry>
          </mxCell>
        </UserObject>
      </root>
    </mxGraphModel>
  </diagram>
</mxfile>
